<svg width="480" height="627" viewBox="0 0 480 627" fill="none" xmlns="http://www.w3.org/2000/svg">
<g clip-path="url(#clip0_5_17)">
<rect x="40" y="25" width="400" height="575" rx="200" fill="black"/>
<path d="M-33.1121 715.622L-154.384 506.889C-162.387 496.821 -163.803 481.83 -157.861 470.025L11.6376 25.058C17.4722 13.423 27.7701 5.74385 39.2869 4.38346L529.624 -35.4082C539.815 -36.6075 549.969 -32.7232 557.569 -24.7667L850.643 320.372C858.835 328.964 861.667 342.497 857.813 354.49L776.631 715.622H-33.1121Z" fill="#1F1F1F"/>
<path d="M57.8173 585.677H-30.2123C-30.543 585.677 -30.8594 585.547 -31.0933 585.313C-31.3273 585.08 -31.4581 584.764 -31.4581 584.433V518.902C-31.4581 518.571 -31.3273 518.255 -31.0933 518.022C-30.8594 517.788 -30.543 517.657 -30.2123 517.657H57.8173C58.148 517.657 58.4644 517.788 58.6983 518.022C58.9322 518.255 59.0631 518.571 59.0631 518.902V584.433C59.0631 584.764 58.9322 585.08 58.6983 585.313C58.4644 585.547 58.148 585.677 57.8173 585.677ZM-30.2123 518.552C-30.3046 518.555 -30.3916 518.592 -30.457 518.657C-30.5224 518.723 -30.5592 518.809 -30.5619 518.902V584.433C-30.5592 584.526 -30.5224 584.612 -30.457 584.678C-30.3916 584.743 -30.3046 584.78 -30.2123 584.782H56.4819C56.5733 584.78 56.6594 584.742 56.723 584.677C56.7866 584.612 56.8225 584.525 56.8225 584.433V518.902C56.8225 518.81 56.7866 518.723 56.723 518.658C56.6594 518.593 56.5733 518.555 56.4819 518.552H-30.2123Z" fill="#25F3C2"/>
<path opacity="0.2" d="M57.8173 585.677H-30.2123C-30.543 585.677 -30.8594 585.547 -31.0933 585.313C-31.3273 585.08 -31.4581 584.764 -31.4581 584.433V518.902C-31.4581 518.571 -31.3273 518.255 -31.0933 518.022C-30.8594 517.788 -30.543 517.657 -30.2123 517.657H57.8173C58.148 517.657 58.4644 517.788 58.6983 518.022C58.9322 518.255 59.0631 518.571 59.0631 518.902V584.433C59.0631 584.764 58.9322 585.08 58.6983 585.313C58.4644 585.547 58.148 585.677 57.8173 585.677ZM-30.2123 518.552C-30.3046 518.555 -30.3916 518.592 -30.457 518.657C-30.5224 518.723 -30.5592 518.809 -30.5619 518.902V584.433C-30.5592 584.526 -30.5224 584.612 -30.457 584.678C-30.3916 584.743 -30.3046 584.78 -30.2123 584.782H56.4819C56.5733 584.78 56.6594 584.742 56.723 584.677C56.7866 584.612 56.8225 584.525 56.8225 584.433V518.902C56.8225 518.81 56.7866 518.723 56.723 518.658C56.6594 518.593 56.5733 518.555 56.4819 518.552H-30.2123Z" fill="black"/>
<path d="M56.3027 585.677H-30.2123C-30.543 585.677 -30.8594 585.547 -31.0933 585.313C-31.3273 585.08 -31.4581 584.764 -31.4581 584.433V518.902C-31.4581 518.571 -31.3273 518.255 -31.0933 518.022C-30.8594 517.788 -30.543 517.657 -30.2123 517.657H56.3027C56.6334 517.657 56.9498 517.788 57.1837 518.022C57.4177 518.255 57.5485 518.571 57.5485 518.902V584.433C57.5485 584.764 57.4177 585.08 57.1837 585.313C56.9498 585.547 56.6334 585.677 56.3027 585.677ZM-30.2123 518.552C-30.2589 518.552 -30.3046 518.56 -30.3477 518.577C-30.3907 518.594 -30.4292 518.62 -30.4624 518.652C-30.4947 518.685 -30.5206 518.723 -30.5377 518.766C-30.5547 518.809 -30.5628 518.855 -30.5619 518.902V584.433C-30.5628 584.48 -30.5547 584.526 -30.5377 584.569C-30.5206 584.611 -30.4947 584.65 -30.4624 584.683C-30.4292 584.715 -30.3907 584.741 -30.3477 584.758C-30.3046 584.775 -30.2589 584.783 -30.2123 584.782H56.3027C56.395 584.782 56.4847 584.746 56.5501 584.68C56.6155 584.615 56.6522 584.526 56.6522 584.433V518.902C56.6522 518.809 56.6155 518.72 56.5501 518.655C56.4847 518.589 56.395 518.552 56.3027 518.552H-30.2123Z" fill="#25F3C2"/>
<path d="M56.214 527.95H-30.2115V528.845H56.214V527.95Z" fill="#25F3C2"/>
<path d="M237.112 174.872H89.4012C88.2361 174.872 87.295 174.318 87.295 173.628V108.097C87.295 107.407 88.2361 106.853 89.4012 106.853H237.112C238.268 106.853 239.209 107.407 239.209 108.097V173.628C239.209 174.318 238.268 174.872 237.112 174.872ZM89.3922 107.748C89.0696 107.748 88.8096 107.909 88.8096 108.097V173.628C88.8096 173.816 89.0696 173.978 89.3922 173.978H234.871C235.185 173.978 235.445 173.816 235.445 173.628V108.097C235.445 107.909 235.185 107.748 234.871 107.748H89.3922Z" fill="#25F3C2"/>
<path opacity="0.2" d="M237.112 174.872H89.4012C88.2361 174.872 87.295 174.318 87.295 173.628V108.097C87.295 107.407 88.2361 106.853 89.4012 106.853H237.112C238.268 106.853 239.209 107.407 239.209 108.097V173.628C239.209 174.318 238.268 174.872 237.112 174.872ZM89.3922 107.748C89.0696 107.748 88.8096 107.909 88.8096 108.097V173.628C88.8096 173.816 89.0696 173.978 89.3922 173.978H234.871C235.185 173.978 235.445 173.816 235.445 173.628V108.097C235.445 107.909 235.185 107.748 234.871 107.748H89.3922Z" fill="black"/>
<path d="M234.578 174.872H89.3851C88.2379 174.872 87.3058 174.318 87.3058 173.628V108.097C87.3058 107.407 88.202 106.853 89.3851 106.853H234.578C235.725 106.853 236.657 107.407 236.657 108.097V173.628C236.657 174.318 235.725 174.872 234.578 174.872ZM89.3851 107.748C89.0714 107.748 88.8115 107.9 88.8115 108.097V173.628C88.8115 173.825 89.0714 173.978 89.3851 173.978H234.578C234.891 173.978 235.151 173.825 235.151 173.628V108.097C235.151 107.9 234.891 107.748 234.578 107.748H89.3851Z" fill="#25F3C2"/>
<path d="M234.423 117.145H89.3922V118.04H234.423V117.145Z" fill="#25F3C2"/>
<path d="M94.0169 113.565C94.759 113.565 95.3613 112.964 95.3613 112.223C95.3613 111.481 94.759 110.88 94.0169 110.88C93.2748 110.88 92.6725 111.481 92.6725 112.223C92.6725 112.964 93.2748 113.565 94.0169 113.565Z" fill="#25F3C2"/>
<path d="M98.4981 113.565C99.2402 113.565 99.8425 112.964 99.8425 112.223C99.8425 111.481 99.2402 110.88 98.4981 110.88C97.756 110.88 97.1537 111.481 97.1537 112.223C97.1537 112.964 97.756 113.565 98.4981 113.565Z" fill="#25F3C2"/>
<path d="M102.979 113.565C103.722 113.565 104.324 112.964 104.324 112.223C104.324 111.481 103.722 110.88 102.979 110.88C102.237 110.88 101.635 111.481 101.635 112.223C101.635 112.964 102.237 113.565 102.979 113.565Z" fill="#25F3C2"/>
<path d="M102.997 135.814H106.036V145.354C106.071 146.326 105.959 147.298 105.704 148.236C105.419 149.099 104.855 149.843 104.1 150.349C103.181 150.916 102.113 151.193 101.035 151.145C100.405 151.186 99.7744 151.096 99.182 150.88C98.5896 150.665 98.0482 150.328 97.5929 149.892C96.7226 148.879 96.2844 147.564 96.374 146.232L99.251 145.9C99.2385 146.518 99.3675 147.13 99.6274 147.69C99.7896 147.922 100.001 148.115 100.246 148.254C100.491 148.395 100.765 148.479 101.047 148.5C101.328 148.523 101.612 148.483 101.876 148.383C102.14 148.283 102.38 148.126 102.576 147.923C102.931 147.174 103.077 146.342 102.997 145.516V135.814Z" fill="#25F3C2"/>
<path d="M122.895 150.886H119.561L118.243 147.467H112.203L110.957 150.886H107.73L113.61 135.814H116.872L122.895 150.886ZM117.275 144.889L115.196 139.295L113.162 144.889H117.275Z" fill="#25F3C2"/>
<path d="M126.793 150.886L121.415 135.814H124.722L128.523 146.965L132.215 135.814H135.451L130.073 150.886H126.793Z" fill="#25F3C2"/>
<path d="M149.056 150.886H145.739L144.422 147.467H138.381L137.135 150.886H133.9L139.779 135.814H142.997L149.056 150.886ZM143.445 144.889L141.366 139.295L139.322 144.889H143.445Z" fill="#25F3C2"/>
<path d="M149.9 145.983L152.866 145.696C152.959 146.531 153.342 147.308 153.951 147.889C154.576 148.38 155.36 148.628 156.156 148.587C156.947 148.646 157.734 148.424 158.378 147.961C158.604 147.792 158.789 147.573 158.918 147.322C159.047 147.07 159.117 146.793 159.122 146.511C159.129 146.184 159.017 145.866 158.809 145.616C158.506 145.308 158.129 145.082 157.715 144.962C157.357 144.837 156.541 144.622 155.277 144.309C154.031 144.08 152.853 143.568 151.836 142.814C151.394 142.442 151.041 141.977 150.801 141.452C150.56 140.928 150.439 140.357 150.447 139.78C150.445 139.012 150.672 138.262 151.101 137.623C151.558 136.937 152.215 136.406 152.983 136.102C153.926 135.728 154.935 135.549 155.95 135.574C157.48 135.464 159 135.905 160.234 136.818C160.708 137.231 161.088 137.742 161.348 138.314C161.608 138.887 161.741 139.509 161.739 140.138L158.692 140.273C158.627 139.633 158.327 139.039 157.85 138.608C157.282 138.228 156.604 138.048 155.923 138.098C155.189 138.054 154.46 138.245 153.843 138.644C153.696 138.743 153.575 138.876 153.491 139.032C153.407 139.188 153.362 139.362 153.359 139.539C153.362 139.711 153.404 139.882 153.482 140.036C153.559 140.191 153.67 140.327 153.807 140.434C154.671 140.944 155.622 141.287 156.613 141.445C157.746 141.687 158.847 142.063 159.893 142.564C160.575 142.916 161.15 143.445 161.56 144.094C161.973 144.837 162.18 145.677 162.16 146.527C162.139 147.376 161.892 148.205 161.443 148.927C160.953 149.686 160.239 150.273 159.4 150.61C158.352 151.005 157.238 151.191 156.12 151.156C154.541 151.261 152.977 150.791 151.719 149.831C150.639 148.83 149.988 147.451 149.9 145.983Z" fill="#25F3C2"/>
<path d="M174.394 145.346L177.351 146.241C177.026 147.683 176.228 148.975 175.084 149.911C173.721 150.827 172.084 151.242 170.45 151.087C168.816 150.931 167.286 150.216 166.121 149.061C164.766 147.515 164.071 145.5 164.185 143.449C164.071 141.331 164.781 139.25 166.166 137.64C166.82 136.948 167.615 136.404 168.498 136.044C169.381 135.684 170.331 135.518 171.283 135.555C172.935 135.491 174.545 136.08 175.765 137.193C176.52 137.962 177.054 138.92 177.306 139.967L174.286 140.692C174.149 139.959 173.752 139.3 173.167 138.834C172.583 138.37 171.851 138.13 171.104 138.16C170.595 138.148 170.09 138.25 169.625 138.457C169.159 138.664 168.746 138.972 168.415 139.359C167.617 140.496 167.245 141.878 167.367 143.261C167.367 145.167 167.707 146.519 168.398 147.333C168.723 147.727 169.134 148.041 169.601 148.251C170.067 148.46 170.575 148.559 171.086 148.542C171.857 148.557 172.605 148.282 173.184 147.772C173.828 147.108 174.251 146.261 174.394 145.346Z" fill="#25F3C2"/>
<path d="M179.965 150.887V135.816H186.383C187.571 135.761 188.76 135.897 189.905 136.218C190.65 136.484 191.282 136.996 191.697 137.668C192.144 138.378 192.374 139.202 192.361 140.04C192.401 141.068 192.041 142.072 191.357 142.841C190.56 143.645 189.502 144.14 188.372 144.238C188.976 144.575 189.526 145 190.003 145.499C190.655 146.264 191.238 147.085 191.742 147.952L193.588 150.887H189.941L187.673 147.576C187.187 146.803 186.651 146.061 186.069 145.356C185.823 145.081 185.517 144.866 185.173 144.73C184.672 144.592 184.151 144.535 183.631 144.56H183.022V150.825L179.965 150.887ZM183.022 142.188H185.271C186.19 142.231 187.109 142.171 188.014 142.009C188.378 141.902 188.694 141.674 188.91 141.365C189.129 141.03 189.239 140.636 189.224 140.237C189.244 139.791 189.097 139.354 188.811 139.011C188.513 138.682 188.106 138.473 187.664 138.42C187.413 138.42 186.678 138.366 185.442 138.366H183.066L183.022 142.188Z" fill="#25F3C2"/>
<path d="M195.097 150.886V135.814H198.144V150.886H195.097Z" fill="#25F3C2"/>
<path d="M201.049 150.886V135.814H205.942C207.142 135.766 208.343 135.842 209.527 136.038C210.399 136.271 211.167 136.791 211.705 137.514C212.325 138.365 212.641 139.399 212.602 140.45C212.626 141.258 212.454 142.059 212.1 142.786C211.797 143.376 211.357 143.885 210.818 144.272C210.344 144.611 209.808 144.853 209.241 144.988C208.195 145.154 207.135 145.227 206.077 145.202H204.087V150.886H201.049ZM204.096 138.356V142.634H205.763C206.574 142.68 207.388 142.599 208.174 142.392C208.559 142.252 208.892 141.997 209.124 141.658C209.358 141.313 209.481 140.903 209.474 140.486C209.493 139.987 209.32 139.5 208.99 139.125C208.669 138.769 208.235 138.532 207.762 138.454C207.033 138.37 206.299 138.338 205.566 138.356H204.096Z" fill="#25F3C2"/>
<path d="M218.504 150.887V138.357H214.023V135.806H226.015V138.357H221.534V150.887H218.504Z" fill="#25F3C2"/>
<path opacity="0.1" d="M287.948 389.065V402.866H62.6938V252.255H77.724" fill="black"/>
<path d="M303.677 237.701H78.4132V388.311H303.677V237.701Z" fill="white"/>
<path d="M87.295 244.361C87.295 244.715 87.1901 245.061 86.9929 245.356C86.7957 245.65 86.5161 245.879 86.1881 246.014C85.861 246.15 85.5006 246.185 85.1529 246.116C84.8051 246.047 84.4852 245.877 84.2351 245.627C83.9842 245.376 83.8139 245.058 83.744 244.71C83.675 244.363 83.7108 244.003 83.8462 243.676C83.9824 243.349 84.2118 243.069 84.5067 242.873C84.8016 242.676 85.1475 242.571 85.5024 242.571C85.9775 242.571 86.4336 242.759 86.7697 243.095C87.1058 243.43 87.295 243.886 87.295 244.361Z" fill="#25F3C2"/>
<path d="M93.4881 244.361C93.4881 244.715 93.3833 245.061 93.1861 245.356C92.9889 245.65 92.7093 245.879 92.3822 246.014C92.0541 246.15 91.6938 246.185 91.3461 246.116C90.9984 246.047 90.6793 245.877 90.4283 245.627C90.1774 245.376 90.0071 245.058 89.9381 244.71C89.8682 244.363 89.904 244.003 90.0394 243.676C90.1756 243.349 90.405 243.069 90.6999 242.873C90.9948 242.676 91.3416 242.571 91.6956 242.571C92.1715 242.571 92.6268 242.759 92.9629 243.095C93.299 243.43 93.4881 243.886 93.4881 244.361Z" fill="#25F3C2"/>
<path d="M99.5907 244.361C99.5907 244.715 99.4849 245.061 99.2887 245.356C99.0915 245.65 98.8118 245.879 98.4838 246.014C98.1567 246.15 97.7964 246.185 97.4486 246.116C97.1009 246.047 96.7809 245.877 96.5309 245.627C96.2799 245.376 96.1088 245.058 96.0398 244.71C95.9708 244.363 96.0066 244.003 96.1419 243.676C96.2772 243.349 96.5076 243.069 96.8024 242.873C97.0973 242.676 97.4433 242.571 97.7982 242.571C98.2732 242.571 98.7294 242.759 99.0655 243.095C99.4016 243.43 99.5907 243.886 99.5907 244.361Z" fill="#25F3C2"/>
<g opacity="0.6">
<path opacity="0.6" d="M87.295 244.361C87.295 244.715 87.1901 245.061 86.9929 245.356C86.7957 245.65 86.5161 245.879 86.1881 246.014C85.861 246.15 85.5006 246.185 85.1529 246.116C84.8051 246.047 84.4852 245.877 84.2351 245.627C83.9842 245.376 83.8139 245.058 83.744 244.71C83.675 244.363 83.7108 244.003 83.8462 243.676C83.9824 243.349 84.2118 243.069 84.5067 242.873C84.8016 242.676 85.1475 242.571 85.5024 242.571C85.9775 242.571 86.4336 242.759 86.7697 243.095C87.1058 243.43 87.295 243.886 87.295 244.361Z" fill="white"/>
<path opacity="0.6" d="M93.488 244.361C93.488 244.715 93.3832 245.061 93.186 245.356C92.9888 245.65 92.7092 245.879 92.3821 246.014C92.0541 246.15 91.6938 246.185 91.346 246.116C90.9983 246.047 90.6792 245.877 90.4283 245.627C90.1773 245.376 90.007 245.058 89.938 244.71C89.8681 244.363 89.904 244.003 90.0393 243.676C90.1755 243.349 90.405 243.069 90.6998 242.873C90.9947 242.676 91.3415 242.571 91.6955 242.571C92.1714 242.571 92.6267 242.759 92.9628 243.095C93.2989 243.43 93.488 243.886 93.488 244.361Z" fill="white"/>
<path opacity="0.6" d="M99.5906 244.361C99.5906 244.715 99.4849 245.061 99.2886 245.356C99.0914 245.65 98.8118 245.879 98.4838 246.014C98.1566 246.15 97.7963 246.185 97.4486 246.116C97.1008 246.047 96.7809 245.877 96.5308 245.627C96.2799 245.376 96.1087 245.058 96.0397 244.71C95.9707 244.363 96.0065 244.003 96.1418 243.676C96.2772 243.349 96.5075 243.069 96.8024 242.873C97.0972 242.676 97.4432 242.571 97.7981 242.571C98.2731 242.571 98.7293 242.759 99.0654 243.095C99.4015 243.43 99.5906 243.886 99.5906 244.361Z" fill="white"/>
</g>
<path d="M77.9023 237.192V388.823H304.188V237.192H77.9023ZM303.166 238.213V250.626H78.9241V238.213H303.166ZM78.9241 387.803V251.647H303.166V387.803H78.9241Z" fill="#25F3C2"/>
<path opacity="0.6" d="M77.9023 237.192V388.823H304.188V237.192H77.9023ZM303.166 238.213V250.626H78.9241V238.213H303.166ZM78.9241 387.803V251.647H303.166V387.803H78.9241Z" fill="white"/>
<path d="M158.313 266.843H98.2283V326.844H158.313V266.843Z" fill="#25F3C2"/>
<g opacity="0.6">
<path opacity="0.6" d="M158.313 266.843H98.2283V326.844H158.313V266.843Z" fill="white"/>
</g>
<path d="M130.233 347.079H101.992V375.281H130.233V347.079Z" fill="#25F3C2"/>
<path opacity="0.6" d="M130.233 347.079H101.992V375.281H130.233V347.079Z" fill="white"/>
<path d="M181.445 347.079H153.204V375.281H181.445V347.079Z" fill="#25F3C2"/>
<path opacity="0.6" d="M181.445 347.079H153.204V375.281H181.445V347.079Z" fill="white"/>
<path d="M232.658 347.079H204.417V375.281H232.658V347.079Z" fill="#25F3C2"/>
<path opacity="0.6" d="M232.658 347.079H204.417V375.281H232.658V347.079Z" fill="white"/>
<path d="M283.87 347.079H255.629V375.281H283.87V347.079Z" fill="#25F3C2"/>
<path opacity="0.6" d="M283.87 347.079H255.629V375.281H283.87V347.079Z" fill="white"/>
<g opacity="0.6">
<path opacity="0.6" d="M273.161 277.547H168.479C168.344 277.545 168.216 277.491 168.121 277.395C168.025 277.3 167.97 277.172 167.968 277.037C167.968 276.97 167.981 276.903 168.007 276.842C168.033 276.78 168.07 276.724 168.118 276.676C168.165 276.629 168.221 276.591 168.284 276.566C168.346 276.54 168.412 276.527 168.479 276.527H273.161C273.228 276.526 273.296 276.538 273.357 276.563C273.42 276.588 273.478 276.626 273.525 276.673C273.573 276.721 273.61 276.778 273.635 276.84C273.66 276.903 273.673 276.97 273.672 277.037C273.672 277.104 273.659 277.17 273.633 277.232C273.607 277.294 273.57 277.35 273.522 277.397C273.475 277.445 273.418 277.482 273.356 277.508C273.295 277.534 273.228 277.547 273.161 277.547Z" fill="#25F3C2"/>
<path opacity="0.6" d="M273.161 288.769H168.479C168.344 288.767 168.216 288.713 168.121 288.617C168.025 288.522 167.97 288.394 167.968 288.259C167.968 288.192 167.981 288.126 168.007 288.064C168.033 288.002 168.07 287.946 168.118 287.899C168.165 287.851 168.221 287.814 168.284 287.788C168.346 287.762 168.412 287.749 168.479 287.749H273.161C273.228 287.748 273.296 287.761 273.357 287.786C273.42 287.811 273.478 287.848 273.525 287.896C273.573 287.943 273.61 288.001 273.635 288.063C273.66 288.125 273.673 288.192 273.672 288.259C273.672 288.394 273.618 288.524 273.522 288.62C273.426 288.716 273.296 288.769 273.161 288.769Z" fill="#25F3C2"/>
<path opacity="0.6" d="M273.161 299.993H168.479C168.344 299.992 168.216 299.937 168.121 299.841C168.025 299.746 167.97 299.618 167.968 299.483C167.968 299.348 168.022 299.218 168.118 299.123C168.214 299.027 168.344 298.973 168.479 298.973H273.161C273.228 298.972 273.296 298.985 273.357 299.01C273.42 299.035 273.478 299.073 273.525 299.12C273.573 299.167 273.61 299.225 273.635 299.287C273.66 299.349 273.673 299.416 273.672 299.483C273.672 299.618 273.618 299.748 273.522 299.844C273.426 299.94 273.296 299.993 273.161 299.993Z" fill="#25F3C2"/>
<path opacity="0.6" d="M229.182 311.216H168.479C168.412 311.216 168.346 311.203 168.284 311.177C168.221 311.152 168.165 311.114 168.118 311.066C168.07 311.019 168.033 310.964 168.007 310.901C167.981 310.839 167.968 310.773 167.968 310.706C167.97 310.572 168.025 310.443 168.121 310.348C168.216 310.253 168.344 310.198 168.479 310.196H229.182C229.317 310.198 229.446 310.253 229.541 310.348C229.636 310.443 229.69 310.572 229.693 310.706C229.693 310.773 229.68 310.839 229.654 310.901C229.629 310.964 229.591 311.019 229.543 311.066C229.496 311.114 229.439 311.152 229.378 311.177C229.316 311.203 229.249 311.216 229.182 311.216Z" fill="#25F3C2"/>
</g>
<path d="M370.51 487.818H478.329C479.7 487.818 481.016 488.362 481.986 489.331C482.955 490.299 483.5 491.613 483.5 492.982C483.5 494.352 482.955 495.666 481.986 496.634C481.016 497.602 479.7 498.146 478.329 498.146H370.51" fill="#868A91"/>
<path opacity="0.2" d="M370.51 487.818H478.329C479.7 487.818 481.016 488.362 481.986 489.331C482.955 490.299 483.5 491.613 483.5 492.982C483.5 494.352 482.955 495.666 481.986 496.634C481.016 497.602 479.7 498.146 478.329 498.146H370.51" fill="black"/>
<path d="M97.9774 487.819H420.699C421.414 487.759 422.135 487.849 422.813 488.081C423.493 488.313 424.116 488.685 424.644 489.17C425.172 489.655 425.594 490.245 425.882 490.901C426.171 491.557 426.32 492.266 426.32 492.983C426.32 493.7 426.171 494.409 425.882 495.065C425.594 495.721 425.172 496.311 424.644 496.796C424.116 497.282 423.493 497.652 422.813 497.885C422.135 498.117 421.414 498.206 420.699 498.147H97.9774C97.2622 498.206 96.5425 498.117 95.8632 497.885C95.1847 497.652 94.5609 497.282 94.033 496.796C93.5051 496.311 93.083 495.721 92.7944 495.065C92.5067 494.409 92.3571 493.7 92.3571 492.983C92.3571 492.266 92.5067 491.557 92.7944 490.901C93.083 490.245 93.5051 489.655 94.033 489.17C94.5609 488.685 95.1847 488.313 95.8632 488.081C96.5425 487.849 97.2622 487.759 97.9774 487.819Z" fill="#868A91"/>
<path d="M109.708 498.254H104.394V712.687H109.708V498.254Z" fill="#868A91"/>
<path d="M416.369 498.146H411.055V712.696H416.369V498.146Z" fill="#868A91"/>
<path d="M302.896 497.913L411.055 498.146V532.881L302.896 532.648V497.913Z" fill="#868A91"/>
<path opacity="0.2" d="M406.826 529.122L307.342 528.943V502.468L406.826 502.638V529.122ZM308.158 528.137L406.019 528.307V503.444L308.158 503.274V528.137Z" fill="black"/>
<path d="M359.754 514.748C359.895 515.349 359.836 515.98 359.586 516.544C359.335 517.109 358.907 517.577 358.367 517.876C357.826 518.176 357.202 518.291 356.59 518.205C355.978 518.118 355.411 517.835 354.974 517.397C354.538 516.96 354.256 516.392 354.173 515.781C354.089 515.169 354.207 514.546 354.509 514.008C354.811 513.47 355.282 513.045 355.848 512.797C356.415 512.549 357.047 512.492 357.648 512.636C358.161 512.758 358.628 513.02 359 513.394C359.373 513.767 359.633 514.236 359.754 514.748Z" fill="#61656D"/>
<path opacity="0.2" d="M359.756 514.749C359.637 514.236 359.376 513.766 359.004 513.393C358.632 513.02 358.163 512.757 357.65 512.637C357.297 512.569 356.935 512.569 356.583 512.637H356.843C357.488 512.784 358.062 513.153 358.464 513.679C358.865 514.205 359.068 514.855 359.04 515.516C359.011 516.176 358.751 516.806 358.306 517.296C357.86 517.785 357.257 518.103 356.601 518.194C357.057 518.259 357.522 518.212 357.955 518.056C358.389 517.901 358.778 517.642 359.089 517.302C359.399 516.963 359.622 516.553 359.739 516.108C359.855 515.663 359.861 515.196 359.756 514.749Z" fill="black"/>
<path d="M302.896 529.238L411.055 529.471V564.206L302.896 563.973V529.238Z" fill="#868A91"/>
<path opacity="0.2" d="M406.826 560.447L307.342 560.268V533.793L406.826 533.964V560.447ZM308.158 559.462L406.019 559.632V534.769L308.158 534.599V559.462Z" fill="black"/>
<path d="M359.754 546.073C359.895 546.674 359.836 547.305 359.586 547.869C359.335 548.434 358.907 548.902 358.367 549.201C357.826 549.501 357.202 549.616 356.59 549.53C355.978 549.443 355.411 549.16 354.974 548.722C354.538 548.285 354.256 547.717 354.173 547.106C354.089 546.494 354.207 545.871 354.509 545.333C354.811 544.795 355.282 544.37 355.848 544.122C356.415 543.874 357.047 543.817 357.648 543.961C358.161 544.083 358.628 544.346 359 544.719C359.373 545.092 359.633 545.561 359.754 546.073Z" fill="#61656D"/>
<path opacity="0.2" d="M359.756 546.074C359.637 545.561 359.376 545.091 359.004 544.718C358.632 544.345 358.163 544.082 357.65 543.961C357.297 543.894 356.935 543.894 356.583 543.961H356.843C357.488 544.109 358.062 544.478 358.464 545.004C358.865 545.53 359.068 546.18 359.04 546.841C359.011 547.501 358.751 548.131 358.306 548.621C357.86 549.11 357.257 549.428 356.601 549.519C357.057 549.584 357.522 549.536 357.955 549.381C358.389 549.226 358.778 548.967 359.089 548.627C359.399 548.288 359.622 547.878 359.739 547.433C359.855 546.987 359.861 546.521 359.756 546.074Z" fill="black"/>
<path d="M302.896 561.458L411.055 561.691V596.426L302.896 596.193V561.458Z" fill="#868A91"/>
<path opacity="0.2" d="M406.826 592.667L307.342 592.488V566.013L406.826 566.183V592.667ZM308.158 591.682L406.019 591.852V566.989L308.158 566.819V591.682Z" fill="black"/>
<path d="M359.754 578.293C359.895 578.894 359.836 579.525 359.586 580.089C359.335 580.654 358.907 581.122 358.367 581.421C357.826 581.721 357.202 581.836 356.59 581.75C355.978 581.663 355.411 581.38 354.974 580.942C354.538 580.505 354.256 579.937 354.173 579.326C354.089 578.714 354.207 578.091 354.509 577.553C354.811 577.015 355.282 576.59 355.848 576.342C356.415 576.094 357.047 576.037 357.648 576.181C358.161 576.303 358.628 576.565 359 576.939C359.373 577.312 359.633 577.781 359.754 578.293Z" fill="#61656D"/>
<path opacity="0.2" d="M359.756 578.294C359.637 577.781 359.376 577.311 359.004 576.938C358.632 576.564 358.163 576.302 357.65 576.181C357.297 576.114 356.935 576.114 356.583 576.181H356.843C357.488 576.329 358.062 576.698 358.464 577.224C358.865 577.75 359.068 578.4 359.04 579.061C359.011 579.721 358.751 580.351 358.306 580.841C357.86 581.33 357.257 581.648 356.601 581.739C357.057 581.804 357.522 581.756 357.955 581.601C358.389 581.446 358.778 581.187 359.089 580.847C359.399 580.508 359.622 580.098 359.739 579.653C359.855 579.207 359.861 578.741 359.756 578.294Z" fill="black"/>
<path d="M302.896 593.678L411.055 593.911V628.645L302.896 628.413V593.678Z" fill="#868A91"/>
<path opacity="0.2" d="M406.826 624.887L307.342 624.708V598.233L406.826 598.404V624.887ZM308.158 623.902L406.019 624.072V599.209L308.158 599.039V623.902Z" fill="black"/>
<path opacity="0.2" d="M472.529 498.146H302.896V501.09H472.529V498.146Z" fill="black"/>
<path opacity="0.2" d="M166.093 498.146H104.629V501.09H166.093V498.146Z" fill="black"/>
<path opacity="0.2" d="M148.615 580.666H104.394V585.821H149.914L148.615 580.666Z" fill="black"/>
<path opacity="0.2" d="M165.869 580.666H153.277L152.56 585.821H165.869V580.666Z" fill="black"/>
<path d="M416.362 498.146V712.687H424.016V693.086H460.404V712.687H472.53V498.146H416.362Z" fill="#868A91"/>
<path d="M109.701 498.254V712.687H117.499V693.086H153.886V712.687H165.869V498.254H109.701Z" fill="#868A91"/>
<path opacity="0.2" d="M109.701 498.254V712.687H117.499V693.086H153.886V712.687H165.869V498.254H109.701Z" fill="black"/>
<path opacity="0.2" d="M416.362 498.146V712.687H424.016V693.086H460.404V712.687H472.53V498.146H416.362Z" fill="black"/>
<path d="M295.762 486.753H269.905L247.839 398.399H273.696L295.762 486.753Z" fill="#3F4249"/>
<path opacity="0.2" d="M295.762 486.753H269.905L247.839 398.399H273.696L295.762 486.753Z" fill="black"/>
<path d="M293.969 486.753H268.121L246.047 398.399H271.904L293.969 486.753Z" fill="#3F4249"/>
<path opacity="0.2" d="M291.291 468.852H263.605L262.449 464.199H290.125L291.291 468.852Z" fill="black"/>
<path d="M344.905 374.036H197.579V464.189H344.905V374.036Z" fill="#3F4249"/>
<path opacity="0.7" d="M339.752 378.19H202.733V460.028H339.752V378.19Z" fill="black"/>
<path d="M346.922 374.01H344.897V464.181H346.922V374.01Z" fill="#3F4249"/>
<path opacity="0.2" d="M346.922 374.01H344.897V464.181H346.922V374.01Z" fill="black"/>
<path d="M328.388 483.2H235.33V487.97H328.388V483.2Z" fill="#3F4249"/>
<path d="M255.224 384.185H211.863V387.586H255.224V384.185Z" fill="#25F3C2"/>
<path d="M245.006 389.986H211.863V393.387H245.006V389.986Z" fill="#25F3C2"/>
<path d="M251.495 395.776H211.863V399.177H251.495V395.776Z" fill="#25F3C2"/>
<path d="M243.922 401.577H211.863V404.978H243.922V401.577Z" fill="#25F3C2"/>
<path d="M258.444 407.367H222.208V410.768H258.444V407.367Z" fill="#25F3C2"/>
<path d="M255.217 414.34H222.208V417.741H255.217V414.34Z" fill="#25F3C2"/>
<path d="M245.006 420.137H211.863V423.538H245.006V420.137Z" fill="#25F3C2"/>
<path d="M251.495 425.929H211.863V429.33H251.495V425.929Z" fill="#25F3C2"/>
<path d="M243.922 431.72H211.863V435.121H243.922V431.72Z" fill="#25F3C2"/>
<path d="M258.45 437.52H211.863V440.921H258.45V437.52Z" fill="#25F3C2"/>
<path d="M265.713 444.161H226.081V447.562H265.713V444.161Z" fill="#25F3C2"/>
<path d="M258.45 450.802H211.863V454.203H258.45V450.802Z" fill="#25F3C2"/>
<g opacity="0.2">
<path opacity="0.2" d="M255.224 384.185H211.863V387.586H255.224V384.185Z" fill="black"/>
<path opacity="0.2" d="M245.006 389.986H211.863V393.387H245.006V389.986Z" fill="black"/>
<path opacity="0.2" d="M251.495 395.775H211.863V399.176H251.495V395.775Z" fill="black"/>
<path opacity="0.2" d="M243.922 401.575H211.863V404.976H243.922V401.575Z" fill="black"/>
<path opacity="0.2" d="M258.44 407.367H222.205V410.768H258.44V407.367Z" fill="black"/>
<path opacity="0.2" d="M255.214 414.338H222.205V417.739H255.214V414.338Z" fill="black"/>
<path opacity="0.2" d="M245.006 420.137H211.863V423.538H245.006V420.137Z" fill="black"/>
<path opacity="0.2" d="M251.495 425.929H211.863V429.33H251.495V425.929Z" fill="black"/>
<path opacity="0.2" d="M243.922 431.719H211.863V435.12H243.922V431.719Z" fill="black"/>
<path opacity="0.2" d="M258.45 437.518H211.863V440.919H258.45V437.518Z" fill="black"/>
<path opacity="0.2" d="M265.71 444.159H226.078V447.56H265.71V444.159Z" fill="black"/>
<path opacity="0.2" d="M258.45 450.8H211.863V454.201H258.45V450.8Z" fill="black"/>
</g>
<path d="M320.356 384.185H276.995V387.586H320.356V384.185Z" fill="#25F3C2"/>
<path d="M310.139 389.986H276.995V393.387H310.139V389.986Z" fill="#25F3C2"/>
<path d="M316.627 395.776H276.995V399.177H316.627V395.776Z" fill="#25F3C2"/>
<path d="M309.054 401.577H276.995V404.978H309.054V401.577Z" fill="#25F3C2"/>
<path d="M323.573 407.367H287.337V410.768H323.573V407.367Z" fill="#25F3C2"/>
<path d="M320.346 414.34H287.337V417.741H320.346V414.34Z" fill="#25F3C2"/>
<path d="M310.139 420.137H276.995V423.538H310.139V420.137Z" fill="#25F3C2"/>
<path d="M316.627 425.929H276.995V429.33H316.627V425.929Z" fill="#25F3C2"/>
<path d="M309.054 431.72H276.995V435.121H309.054V431.72Z" fill="#25F3C2"/>
<path d="M323.582 437.52H276.995V440.921H323.582V437.52Z" fill="#25F3C2"/>
<path d="M330.842 444.161H291.21V447.562H330.842V444.161Z" fill="#25F3C2"/>
<path d="M323.582 450.802H276.995V454.203H323.582V450.802Z" fill="#25F3C2"/>
<g opacity="0.2">
<path opacity="0.2" d="M320.356 384.185H276.995V387.586H320.356V384.185Z" fill="white"/>
<path opacity="0.2" d="M310.139 389.986H276.995V393.387H310.139V389.986Z" fill="white"/>
<path opacity="0.2" d="M316.627 395.775H276.995V399.176H316.627V395.775Z" fill="white"/>
<path opacity="0.2" d="M309.054 401.575H276.995V404.976H309.054V401.575Z" fill="white"/>
<path opacity="0.2" d="M323.573 407.367H287.337V410.768H323.573V407.367Z" fill="white"/>
<path opacity="0.2" d="M320.346 414.338H287.337V417.739H320.346V414.338Z" fill="white"/>
<path opacity="0.2" d="M310.139 420.137H276.995V423.538H310.139V420.137Z" fill="white"/>
<path opacity="0.2" d="M316.627 425.929H276.995V429.33H316.627V425.929Z" fill="white"/>
<path opacity="0.2" d="M309.054 431.719H276.995V435.12H309.054V431.719Z" fill="white"/>
<path opacity="0.2" d="M323.582 437.518H276.995V440.919H323.582V437.518Z" fill="white"/>
<path opacity="0.2" d="M330.842 444.159H291.21V447.56H330.842V444.159Z" fill="white"/>
<path opacity="0.2" d="M323.582 450.8H276.995V454.201H323.582V450.8Z" fill="white"/>
</g>
<path d="M713.2 225.833H437.62V434.869H713.2V225.833Z" fill="white"/>
<path d="M713.2 240.637H437.62V241.98H713.2V240.637Z" fill="#25F3C2"/>
<path opacity="0.6" d="M713.2 240.637H437.729V241.98H713.2V240.637Z" fill="white"/>
<path d="M713.872 435.54H436.93V225.162H713.872V435.54ZM438.292 434.198H712.546V226.504H438.292V434.198Z" fill="#25F3C2"/>
<path opacity="0.6" d="M713.872 435.54H436.93V225.162H713.872V435.54ZM438.292 434.198H712.546V226.504H438.292V434.198Z" fill="white"/>
<path d="M135.406 512.029H269.144C272.402 512.031 275.604 512.87 278.444 514.465C281.283 516.06 283.663 518.357 285.356 521.137C287.049 523.916 287.999 527.084 288.111 530.335C288.224 533.587 287.498 536.812 286.003 539.702L225.255 667.974L198.17 655.748L230.014 557.763H154.218L135.406 512.029Z" fill="#3F4249"/>
<path opacity="0.3" d="M135.406 512.029H259.922C261.268 512.033 262.592 512.369 263.777 513.007C264.962 513.645 265.971 514.565 266.715 515.686C267.459 516.806 267.914 518.093 268.041 519.432C268.168 520.77 267.962 522.12 267.441 523.359L265.765 527.298L266.41 528.193C269.52 532.668 270.892 539.72 271.913 545.502L274.602 560.717C274.616 560.794 274.615 560.873 274.598 560.95C274.582 561.026 274.549 561.098 274.505 561.163C274.46 561.227 274.402 561.282 274.336 561.323C274.27 561.365 274.195 561.393 274.118 561.406H274.02C273.878 561.408 273.741 561.359 273.633 561.269C273.524 561.179 273.451 561.052 273.428 560.914L270.739 545.752C269.718 540.015 268.346 533.034 265.219 528.613L210.001 660.841L198.17 655.748L230.014 557.763H154.218L135.406 512.029Z" fill="black"/>
<path d="M93.2917 540.015L95.8819 542.754C100.408 547.509 105.84 551.313 111.86 553.94C117.88 556.567 124.366 557.964 130.934 558.05L227.729 559.312L265.883 683.135L295.226 677.416L269.046 537.796C268.136 532.852 265.659 528.33 261.982 524.897C258.306 521.463 253.622 519.299 248.621 518.723L160.206 508.538L93.2917 540.015Z" fill="#3F4249"/>
<path opacity="0.3" d="M115.662 529.49C123.8 541.072 141.277 545.359 154.613 545.502L231.592 547.802C234.166 547.876 236.647 548.777 238.668 550.369C240.689 551.962 242.143 554.162 242.813 556.645L275.508 680.996L265.856 683.135L227.702 559.276L134.707 558.094C126.945 557.992 119.281 556.34 112.168 553.234C105.055 550.127 98.637 545.63 93.2917 540.007L115.662 529.49Z" fill="black"/>
<path d="M99.2223 406.687L64.5016 463.233C63.3678 465.083 62.7485 467.201 62.7064 469.37C62.6643 471.538 63.202 473.679 64.2641 475.571C65.3252 477.464 66.873 479.039 68.7462 480.136C70.6203 481.234 72.7533 481.812 74.925 481.813H110.963L99.2223 406.687Z" fill="#25F3C2"/>
<path d="M163.78 352.728L166.809 370.807C166.962 371.702 171.855 376.007 171.775 377.492C171.792 378.242 171.546 378.974 171.08 379.561C170.613 380.148 169.955 380.552 169.22 380.706C168.019 380.974 167.688 380.795 167.688 380.795L165.465 390.389C164.407 395.464 161.046 399.608 154.611 398.444L148.696 397.549L142.288 412.764L118.412 395.133L124.99 375.595L133.37 347.948L163.78 352.728Z" fill="#FC9D9D"/>
<path d="M120.734 346.909C123.719 341.074 127.537 339.051 133.479 339.427C133.956 339.405 134.417 339.256 134.817 338.997C135.217 338.738 135.541 338.377 135.755 337.951C136.929 335.946 139.896 332.509 146.295 332.813C148.122 332.837 149.912 333.326 151.498 334.233C153.083 335.139 154.411 336.434 155.356 337.995C155.756 338.607 156.363 339.054 157.065 339.255C157.769 339.455 158.521 339.396 159.183 339.087C160.559 338.461 162.074 338.198 163.582 338.327C165.089 338.455 166.537 338.97 167.787 339.821C174.455 344.036 171.695 355.528 164.579 356.558L158.887 357.13C158.368 357.186 157.885 357.421 157.521 357.795C157.157 358.17 156.936 358.66 156.898 359.18C156.807 360.189 156.525 361.169 156.064 362.071C155.317 363.561 154.132 364.787 152.668 365.586C151.205 366.386 149.531 366.721 147.873 366.546C147.687 366.532 147.501 366.557 147.326 366.62C147.151 366.683 146.991 366.781 146.857 366.909C146.723 367.038 146.617 367.193 146.546 367.365C146.475 367.536 146.442 367.721 146.447 367.906L146.555 374.296C146.565 374.628 146.479 374.953 146.309 375.237C146.139 375.521 145.892 375.751 145.596 375.898C145.385 375.996 145.156 376.048 144.924 376.052C144.692 376.054 144.461 376.009 144.248 375.916C144.035 375.824 143.843 375.688 143.686 375.517C143.529 375.345 143.411 375.143 143.338 374.923L141.966 370.681C141.728 369.971 141.289 369.344 140.702 368.877C140.115 368.411 139.406 368.123 138.659 368.049L136.983 367.888C135.361 370.314 133.873 373.034 132.502 375.138C131.602 376.584 130.476 377.877 129.168 378.968C126.784 380.812 124.83 380.203 123.62 377.742C123.62 377.742 116.065 361.829 119.578 349.997C119.884 348.945 120.289 347.923 120.788 346.945" fill="black"/>
<path opacity="0.15" d="M129.125 378.968L133.848 379.461L134.35 379.729C135.99 380.544 138.724 381.609 140.955 381C141.112 380.952 141.245 380.845 141.324 380.701C141.402 380.557 141.421 380.388 141.376 380.23C141.331 380.074 141.225 379.942 141.082 379.863C140.939 379.785 140.772 379.765 140.615 379.81C140.244 379.907 139.86 379.956 139.476 379.953L132.45 375.138C131.55 376.58 130.428 377.874 129.125 378.968Z" fill="black"/>
<path d="M139.563 367.218C139.294 366.642 138.901 366.132 138.414 365.723C137.926 365.315 137.354 365.018 136.739 364.854C136.125 364.69 135.481 364.661 134.855 364.771C134.227 364.881 133.632 365.126 133.11 365.491C128.1 368.381 130.422 380.249 139.474 379.954C144.206 379.793 142.951 377.215 141.759 373.689L139.563 367.218Z" fill="#FC9D9D"/>
<path opacity="0.15" d="M133.193 368.64C133.523 368.319 133.914 368.069 134.345 367.905C134.775 367.742 135.234 367.669 135.693 367.691C136.142 367.763 136.571 367.927 136.953 368.172C137.335 368.416 137.663 368.738 137.916 369.114C138.596 370.046 139.026 371.137 139.162 372.283L139.359 373.321C139.377 373.465 139.338 373.611 139.249 373.726C139.159 373.842 139.028 373.918 138.884 373.938C138.812 373.948 138.739 373.944 138.669 373.925C138.599 373.907 138.533 373.875 138.475 373.83C138.418 373.786 138.37 373.731 138.334 373.668C138.298 373.605 138.275 373.536 138.266 373.464L138.059 372.426C137.93 371.465 137.58 370.545 137.038 369.741C136.702 369.228 136.176 368.868 135.577 368.738C135.266 368.734 134.957 368.793 134.668 368.911C134.38 369.029 134.12 369.206 133.901 369.428C133.791 369.522 133.647 369.567 133.503 369.556C133.358 369.544 133.224 369.475 133.13 369.365C133.036 369.254 132.99 369.111 133.002 368.967C133.014 368.823 133.083 368.689 133.193 368.595" fill="black"/>
<path d="M93.2909 540.025C110.866 541.569 128.34 536.099 141.886 524.809L159.945 509.756L141.832 466.062L170.019 434.871L168.674 430.861C166.485 424.286 161.995 418.719 156.028 415.181L149.127 411.091L147.129 403.447L120.402 386.442L116.029 394.408C109.691 396.298 104.076 400.067 99.9304 405.215C95.7852 410.363 93.3044 416.648 92.8159 423.236L86.2643 493.86C85.4219 505.2 85.1888 515.806 88.1375 528.309C88.7676 530.998 89.7597 533.59 91.0861 536.015L93.2909 540.025Z" fill="#25F3C2"/>
<path opacity="0.2" d="M159.943 509.765L140.575 463.046C140.538 462.931 140.479 462.826 140.4 462.735C140.322 462.644 140.226 462.569 140.118 462.516C140.011 462.461 139.894 462.429 139.774 462.42C139.654 462.411 139.534 462.426 139.419 462.464C139.305 462.501 139.2 462.56 139.109 462.639C139.018 462.718 138.943 462.813 138.889 462.92C138.835 463.028 138.803 463.144 138.794 463.264C138.785 463.384 138.799 463.504 138.837 463.618L153.078 514.991L159.943 509.765Z" fill="black"/>
<path opacity="0.2" d="M149.134 411.806C149.261 411.808 149.385 411.775 149.494 411.713C149.603 411.649 149.693 411.558 149.753 411.448C149.843 411.285 149.866 411.092 149.816 410.913C149.765 410.734 149.646 410.581 149.484 410.49L121.073 394.595C120.991 394.548 120.902 394.52 120.808 394.509C120.715 394.498 120.621 394.506 120.532 394.531C120.441 394.557 120.357 394.6 120.284 394.659C120.211 394.718 120.15 394.79 120.105 394.872C120.059 394.953 120.031 395.043 120.02 395.135C120.009 395.227 120.017 395.32 120.043 395.409C120.069 395.498 120.112 395.581 120.17 395.654C120.229 395.726 120.301 395.785 120.383 395.83L148.794 411.77C148.9 411.823 149.016 411.851 149.134 411.851" fill="black"/>
<path opacity="0.2" d="M93.3097 421.203L80.3948 481.813H87.3765L94.1252 421.329C94.1414 421.221 94.1145 421.11 94.05 421.023C93.9854 420.935 93.8878 420.876 93.7802 420.859C93.6718 420.843 93.5615 420.869 93.4737 420.934C93.385 420.998 93.3258 421.096 93.3097 421.203Z" fill="black"/>
<path opacity="0.15" d="M148.689 397.53L144.925 396.832C144.714 396.791 144.495 396.817 144.299 396.908C144.104 396.997 143.942 397.146 143.835 397.332C143.728 397.518 143.683 397.734 143.705 397.947C143.726 398.161 143.814 398.362 143.957 398.523L147.004 401.11L148.689 397.53Z" fill="black"/>
<path d="M234.425 472.461L183.446 483.147L179.861 470.402L149.004 482.879L157.07 506.874C159.956 512.646 164.114 516.647 171.257 516.307C181.932 515.806 253.99 482.297 253.99 482.297L248.425 470.34L238.808 471.575" fill="#FC9D9D"/>
<path d="M163.477 369.876C163.8 368.739 163.477 367.629 162.491 367.325C161.505 367.021 160.6 367.593 160.197 368.622C159.794 369.651 160.197 370.869 161.174 371.174C161.41 371.241 161.658 371.261 161.902 371.233C162.147 371.204 162.384 371.127 162.598 371.006C162.812 370.886 163 370.724 163.151 370.529C163.302 370.335 163.413 370.113 163.477 369.876Z" fill="black"/>
<path d="M163.11 370.054C163.115 369.953 163.084 369.854 163.021 369.774C162.958 369.695 162.869 369.641 162.769 369.624C162.669 369.622 162.571 369.655 162.492 369.717C162.414 369.779 162.36 369.866 162.339 369.965C162.334 370.065 162.367 370.163 162.429 370.242C162.492 370.321 162.581 370.374 162.68 370.394C162.781 370.402 162.881 370.371 162.961 370.308C163.041 370.245 163.094 370.154 163.11 370.054Z" fill="white"/>
<path d="M165.798 364.613C165.582 364.953 164.095 364.515 162.275 364.381C160.456 364.246 158.932 364.381 158.753 364.058C158.681 363.879 158.986 363.584 159.649 363.334C160.528 363.034 161.458 362.917 162.383 362.991C163.308 363.065 164.208 363.327 165.027 363.763C165.618 364.112 165.896 364.452 165.798 364.613Z" fill="black"/>
<path d="M166.677 385.162C165.23 385.302 163.771 385.248 162.339 385.001C162.025 384.929 161.962 385.377 162.178 385.672C163.15 386.859 164.525 387.649 166.04 387.891L166.677 385.162Z" fill="white"/>
<path d="M277.3 479.621C277.3 479.621 262.673 482.216 254.32 481.518L253.101 476.936L267.181 476.166L277.3 479.621Z" fill="#FC9D9D"/>
<path opacity="0.15" d="M277.3 479.621C277.3 479.621 262.673 482.216 254.32 481.518L253.101 476.936L267.181 476.166L277.3 479.621Z" fill="black"/>
<path d="M267.309 472.299L277.248 474.501L283.36 486.243C283.497 486.52 283.538 486.835 283.477 487.138C283.438 487.314 283.366 487.482 283.262 487.629C283.159 487.778 283.027 487.904 282.875 488.001C282.721 488.097 282.551 488.163 282.373 488.192C282.195 488.223 282.013 488.217 281.837 488.176C281.245 488.049 280.727 487.696 280.394 487.192L275.187 478.913L270.652 477.723L267.309 472.299Z" fill="#FC9D9D"/>
<path d="M287.841 482.511C287.848 482.727 287.812 482.943 287.735 483.146C287.659 483.349 287.542 483.534 287.393 483.691C287.244 483.849 287.065 483.975 286.866 484.063C286.668 484.15 286.453 484.198 286.237 484.202C285.702 484.219 285.176 484.07 284.731 483.773L280.689 481.088L277.247 474.465L287.106 481.186C287.327 481.33 287.51 481.527 287.638 481.758C287.766 481.988 287.836 482.247 287.841 482.511Z" fill="#FC9D9D"/>
<path opacity="0.15" d="M277.804 483.102L275.635 477.436L267.309 472.299L270.652 477.758L275.187 478.949L277.804 483.102Z" fill="black"/>
<path d="M277.247 474.5L289.113 477.131C289.321 477.178 289.512 477.278 289.67 477.42C289.827 477.563 289.944 477.744 290.01 477.945C290.101 478.226 290.087 478.53 289.97 478.8C289.853 479.07 289.64 479.288 289.373 479.413H289.302C289.044 479.541 288.751 479.582 288.468 479.53L283.36 478.635L277.247 474.5Z" fill="#FC9D9D"/>
<path opacity="0.15" d="M282.374 482.233L277.247 474.5L280.689 481.123L282.374 482.233Z" fill="black"/>
<path opacity="0.15" d="M285.278 479.083L283.36 478.662L277.713 474.608L278.69 474.823L285.278 479.083Z" fill="black"/>
<path d="M238.761 471.565L240.554 475.279L247.607 483.907C248.207 485.004 249.075 485.932 250.132 486.602C251.189 487.271 252.399 487.663 253.648 487.738C257.093 487.915 260.504 488.516 263.802 489.528C264.038 489.603 264.29 489.612 264.53 489.554C264.77 489.495 264.99 489.371 265.165 489.197C265.464 488.891 265.632 488.482 265.632 488.055C265.632 487.628 265.464 487.219 265.165 486.914L265.093 486.834C263.992 485.678 262.603 484.838 261.069 484.399L256.874 483.048C256.328 482.896 256.059 482.019 256.095 481.455C256.116 481.191 256.225 480.941 256.403 480.745C256.581 480.55 256.82 480.418 257.081 480.372L263.677 478.528C264.078 478.458 264.488 478.47 264.883 478.562C265.279 478.654 265.652 478.825 265.98 479.065L269.404 481.553L272.433 489.555C272.51 489.759 272.638 489.943 272.803 490.086C272.969 490.23 273.169 490.331 273.383 490.378H273.491C273.833 490.45 274.19 490.386 274.485 490.198C274.78 490.011 274.989 489.716 275.068 489.376C275.104 489.189 275.104 488.998 275.068 488.812L272.98 479.029L269.395 472.764L255.799 469.668C254.918 469.464 254.009 469.411 253.11 469.507L238.761 471.565Z" fill="#FC9D9D"/>
<path d="M180.576 472.183L170.018 434.87L141.84 466.034L150.256 486.324L180.576 472.183Z" fill="#25F3C2"/>
<path opacity="0.15" d="M183.838 483.2L177.735 485.106C177.601 485.153 177.457 485.154 177.323 485.111C177.189 485.067 177.073 484.98 176.993 484.865C176.913 484.749 176.873 484.61 176.879 484.47C176.885 484.329 176.937 484.194 177.027 484.086L182.789 479.459L183.838 483.2Z" fill="black"/>
<path d="M43.4872 711.953L67.8204 577.515C68.2954 574.32 66.7897 572.288 70.0162 572.288H123.451C125.09 572.349 126.66 572.966 127.903 574.036C129.145 575.106 129.987 576.566 130.289 578.177L148.967 712.687H155.832L138.203 577.488C137.396 572.055 130.271 567.643 124.759 567.643H68.6897C65.9391 567.717 63.2988 568.737 61.215 570.53C59.1312 572.325 57.7313 574.783 57.2536 577.488L32.2213 711.953H43.4872Z" fill="#B2B6BB"/>
<path opacity="0.3" d="M61.1791 570.552H73.5294V572.279H70.0162C66.8972 572.279 68.2237 574.177 67.8652 577.184H57.3163C57.8155 574.6 59.1778 572.262 61.1791 570.552Z" fill="black"/>
<path d="M43.4854 711.953H39.2999L64.1977 576.102C64.7113 573.866 65.9526 571.863 67.7263 570.406C69.4999 568.949 71.7074 568.119 74.0027 568.047H131.408C133.704 568.107 135.907 568.961 137.643 570.462C139.379 571.964 140.538 574.02 140.926 576.281L159.98 712.732H155.83L137.099 576.845C136.85 575.503 136.15 574.286 135.115 573.394C134.081 572.503 132.773 571.99 131.408 571.94H74.0027C72.6001 571.999 71.2548 572.513 70.1713 573.404C69.0877 574.297 68.3241 575.516 67.9978 576.88L43.4854 711.953Z" fill="#B2B6BB"/>
<path opacity="0.25" d="M43.4854 711.953H39.2999L64.1977 576.102C64.7113 573.866 65.9526 571.863 67.7263 570.406C69.4999 568.949 71.7074 568.119 74.0027 568.047H131.408C133.704 568.107 135.907 568.961 137.643 570.462C139.379 571.964 140.538 574.02 140.926 576.281L159.98 712.732H155.83L137.099 576.845C136.85 575.503 136.15 574.286 135.115 573.394C134.081 572.503 132.773 571.99 131.408 571.94H74.0027C72.6001 571.999 71.2548 572.513 70.1713 573.404C69.0877 574.297 68.3241 575.516 67.9978 576.88L43.4854 711.953Z" fill="black"/>
<path d="M50.5953 571.725C40.0286 571.027 48.2382 547.337 46.6519 537.85L46.3382 535.943L50.1562 535.308L50.4699 537.214C52.818 551.284 45.8004 567.859 50.5953 567.859C52.836 567.859 56.0983 567.752 60.6154 567.617C72.4638 567.241 92.2978 566.597 127.986 566.597H129.922V570.463H127.986C92.3516 570.463 72.5624 571.09 60.7678 571.475C56.2148 571.618 52.9256 571.725 50.6222 571.725" fill="#B2B6BB"/>
<path d="M132.188 570.454H54.3041C48.1199 570.454 48.2185 565.281 49.8228 556.134C51.6153 546.289 50.7191 539.549 50.3247 537.168L54.1427 536.533C56.4371 550.307 49.4016 566.587 54.2682 566.587H132.152V570.445L132.188 570.454Z" fill="#80848B"/>
<path d="M226.896 574.643C220.645 578.311 213.532 580.257 206.282 580.282H103.428C80.5292 580.282 55.972 578.626 52.3422 569.345C48.7124 560.064 209.589 563.429 209.589 563.429C209.589 563.429 222.28 565.693 223.607 566.696C224.933 567.698 226.932 574.643 226.932 574.643" fill="#868A91"/>
<path d="M55.8725 543.058L43.5401 453.146C43.307 451.58 35.5545 450.935 35.8682 449.566C36.9795 444.581 41.7386 436.669 54.2234 436.669H117.149C120.782 436.77 124.271 438.12 127.023 440.491C129.776 442.861 131.625 446.108 132.26 449.682C132.26 449.682 145.704 538.135 145.166 540.077C144.628 542.019 142.863 546.065 139.573 546.065C136.284 546.065 56.4192 546.655 56.4192 546.655L55.8725 543.058Z" fill="#B2B6BB"/>
<path d="M139.278 571.331H57.1819C56.2659 571.331 55.3598 571.151 54.5137 570.801C53.6677 570.451 52.8987 569.938 52.2516 569.291C51.6036 568.645 51.0901 567.877 50.7396 567.032C50.3892 566.188 50.209 565.282 50.209 564.367C50.209 563.454 50.3892 562.548 50.7396 561.703C51.0901 560.858 51.6036 560.09 52.2516 559.444C52.8987 558.797 53.6677 558.284 54.5137 557.934C55.3598 557.584 56.2659 557.404 57.1819 557.404H139.278C141.127 557.404 142.901 558.138 144.209 559.444C145.516 560.75 146.251 562.521 146.251 564.367C146.251 566.215 145.516 567.985 144.209 569.291C142.901 570.598 141.127 571.331 139.278 571.331Z" fill="#B2B6BB"/>
<path d="M232.211 581.838C230.803 581.835 229.443 581.322 228.385 580.393C227.326 579.465 226.641 578.185 226.457 576.79C226.34 576.244 224.718 570.167 211.292 570.167H145.552C144.06 570.189 142.613 569.649 141.502 568.654C140.391 567.658 139.696 566.281 139.556 564.797C139.503 564.004 139.615 563.208 139.882 562.46C140.15 561.711 140.568 561.026 141.111 560.446C141.655 559.865 142.312 559.402 143.042 559.085C143.772 558.768 144.559 558.605 145.355 558.604H211.301C232.713 558.604 237.902 571.429 238.027 575.913C238.072 577.423 237.525 578.891 236.502 580.004C235.479 581.118 234.061 581.788 232.551 581.874H232.211V581.838ZM226.403 576.056C226.4 576.311 226.418 576.565 226.457 576.817C226.457 576.71 226.457 576.611 226.457 576.504C226.449 576.354 226.449 576.206 226.457 576.056H226.403Z" fill="#B2B6BB"/>
<path opacity="0.15" d="M232.211 581.838C230.803 581.835 229.443 581.322 228.385 580.393C227.326 579.465 226.641 578.185 226.457 576.79C226.34 576.244 224.718 570.167 211.292 570.167H145.552C144.06 570.189 142.613 569.649 141.502 568.654C140.391 567.658 139.696 566.281 139.556 564.797C139.503 564.004 139.615 563.208 139.882 562.46C140.15 561.711 140.568 561.026 141.111 560.446C141.655 559.865 142.312 559.402 143.042 559.085C143.772 558.768 144.559 558.605 145.355 558.604H211.301C232.713 558.604 237.902 571.429 238.027 575.913C238.072 577.423 237.525 578.891 236.502 580.004C235.479 581.118 234.061 581.788 232.551 581.874H232.211V581.838ZM226.403 576.056C226.4 576.311 226.418 576.565 226.457 576.817C226.457 576.71 226.457 576.611 226.457 576.504C226.449 576.354 226.449 576.206 226.457 576.056H226.403Z" fill="black"/>
<path d="M215.201 570.455H137.917C137.313 570.446 136.718 570.315 136.167 570.071C135.614 569.827 135.118 569.474 134.707 569.034C134.294 568.593 133.976 568.075 133.77 567.508C133.564 566.942 133.474 566.339 133.507 565.738C133.615 557.405 136.608 553.038 133.884 536.758L132.79 535.934L137.272 535.299L137.585 537.205C140.274 553.396 133.606 566.597 137.854 566.597H215.156L215.201 570.455Z" fill="#B2B6BB"/>
<path d="M217.474 571.089H140.675C131.139 571.089 139.967 554.344 136.651 537.258L140.549 536.542C142.906 550.638 137.17 567.223 141.965 567.223H217.474V571.089Z" fill="#80848B"/>
<path d="M244.795 711.953L225.884 571.805C225.5 569.544 224.339 567.488 222.599 565.992C220.86 564.496 218.652 563.652 216.357 563.607H211.589C210.904 563.491 210.212 563.431 209.518 563.428L153.637 563.222C150.888 563.297 148.247 564.318 146.164 566.112C144.081 567.905 142.681 570.362 142.201 573.067L123.38 712.687H134.601L153.297 572.396C153.537 571.057 154.229 569.84 155.258 568.947C156.287 568.055 157.59 567.541 158.952 567.491H190.876L208.398 567.876C210.037 567.938 211.608 568.553 212.851 569.624C214.093 570.694 214.934 572.155 215.237 573.765L233.825 711.971H240.654L240.547 711.165L240.654 711.971L244.795 711.953Z" fill="#B2B6BB"/>
<path opacity="0.25" d="M240.688 711.953L222.055 572.333C221.814 570.993 221.122 569.777 220.093 568.885C219.064 567.992 217.761 567.479 216.4 567.429H158.995C157.633 567.479 156.33 567.992 155.301 568.885C154.272 569.777 153.58 570.993 153.34 572.333L134.644 712.642H130.476L149.495 571.805C149.878 569.549 151.035 567.497 152.769 566C154.502 564.505 156.704 563.658 158.995 563.607H216.355C218.65 563.652 220.858 564.495 222.597 565.992C224.337 567.489 225.499 569.544 225.882 571.805L244.793 711.926L240.688 711.953Z" fill="black"/>
<path d="M51.8304 543.059L39.498 453.147C39.256 451.581 33.9054 450.936 34.2191 449.567C35.3304 444.582 45.0727 440.142 50.737 440.142H113.663C117.301 440.24 120.791 441.59 123.547 443.962C126.302 446.335 128.151 449.586 128.782 453.165L140.918 545.851L137.333 546.692H52.3413L51.8304 543.059Z" fill="#80848B"/>
<path d="M50.7477 440.123H113.673C116.104 440.183 118.487 440.805 120.636 441.94C122.786 443.075 124.642 444.693 126.06 446.665C125.744 446.56 125.467 446.364 125.262 446.101C123.469 444.114 121.865 448.303 121.865 449.896C121.865 451.158 65.258 456.528 40.3064 458.622L39.4908 453.145C39.2577 451.579 33.9071 450.934 34.2119 449.565C35.3232 444.58 45.0744 440.141 50.7387 440.141" fill="#80848B"/>
<path d="M45.0386 546.656L32.6973 456.744C32.4015 455.12 32.4741 453.452 32.9088 451.86C33.3434 450.268 34.1295 448.794 35.2085 447.546C36.2885 446.297 37.6338 445.306 39.1467 444.643C40.6604 443.982 42.3024 443.667 43.9542 443.722H109.873C113.509 443.822 116.999 445.173 119.754 447.545C122.508 449.918 124.359 453.167 124.993 456.744L137.326 546.656C137.326 546.656 117.751 551.641 86.5888 551.641C55.4262 551.641 45.0386 546.656 45.0386 546.656Z" fill="#B2B6BB"/>
<path opacity="0.3" d="M142.728 571.088H53.3002L54.6804 572.52H142.334L142.728 571.088Z" fill="black"/>
<path d="M458.819 384.75H362.087V487.89H458.819V384.75Z" fill="#3F4249"/>
<path d="M406.8 388.975H365.707V480.82H406.8V388.975Z" stroke="#868A91" stroke-width="0.55" stroke-miterlimit="10"/>
<path opacity="0.3" d="M458.817 385.063H410.876V487.648H458.817V385.063Z" fill="black"/>
<path d="M403.859 394.837H368.637V398.748H403.859V394.837Z" fill="#868A91"/>
<path d="M403.859 425.616H368.637V435.389H403.859V425.616Z" stroke="#868A91" stroke-width="0.55" stroke-miterlimit="10"/>
<path d="M403.859 435.38H368.637V445.154H403.859V435.38Z" stroke="#868A91" stroke-width="0.55" stroke-miterlimit="10"/>
<path d="M372.726 401.674H368.809V402.65H372.726V401.674Z" fill="#868A91"/>
<path d="M402.883 406.56H369.614V407.294H402.883V406.56Z" fill="#868A91"/>
<path d="M401.897 410.714H370.591V411.448H401.897V410.714Z" fill="#868A91"/>
<path d="M386.246 468.118C387.598 468.118 388.693 467.025 388.693 465.675C388.693 464.326 387.598 463.232 386.246 463.232C384.895 463.232 383.8 464.326 383.8 465.675C383.8 467.025 384.895 468.118 386.246 468.118Z" fill="#25F3C2"/>
<path opacity="0.3" d="M386.247 463.232H386.086C386.705 463.269 387.288 463.541 387.714 463.993C388.139 464.445 388.376 465.041 388.376 465.662C388.376 466.282 388.139 466.879 387.714 467.33C387.288 467.782 386.705 468.054 386.086 468.092H386.247C386.581 468.112 386.914 468.064 387.228 467.95C387.541 467.836 387.829 467.66 388.072 467.432C388.315 467.204 388.509 466.928 388.641 466.622C388.774 466.316 388.842 465.986 388.842 465.653C388.842 465.32 388.774 464.989 388.641 464.683C388.509 464.377 388.315 464.102 388.072 463.873C387.829 463.645 387.541 463.469 387.228 463.355C386.914 463.242 386.581 463.194 386.247 463.214V463.232Z" fill="black"/>
<path opacity="0.4" d="M386.739 455.409H385.744C385.493 455.409 385.287 455.614 385.287 455.866V459.84C385.287 460.092 385.493 460.296 385.744 460.296H386.739C386.992 460.296 387.196 460.092 387.196 459.84V455.866C387.196 455.614 386.992 455.409 386.739 455.409Z" fill="black"/>
<path opacity="0.3" d="M386.751 455.455H386.446C386.568 455.455 386.684 455.503 386.77 455.588C386.855 455.674 386.903 455.791 386.903 455.911V459.885C386.903 460.006 386.855 460.122 386.77 460.208C386.684 460.293 386.568 460.342 386.446 460.342H386.751C386.872 460.342 386.988 460.293 387.074 460.208C387.161 460.122 387.208 460.006 387.208 459.885V455.911C387.208 455.791 387.161 455.674 387.074 455.588C386.988 455.503 386.872 455.455 386.751 455.455Z" fill="black"/>
<path opacity="0.1" d="M532.902 73.844H275.974V178.058H532.902V73.844Z" fill="black"/>
<path d="M524.663 66.6402H267.735V170.854H524.663V66.6402Z" fill="white"/>
<path d="M278.753 74.4087C278.753 74.7766 278.643 75.1364 278.438 75.4425C278.234 75.7495 277.943 75.9875 277.602 76.1289C277.261 76.2695 276.887 76.3062 276.525 76.2346C276.164 76.163 275.831 75.9858 275.57 75.7253C275.309 75.4649 275.132 75.1328 275.06 74.7721C274.989 74.4105 275.025 74.0364 275.166 73.6963C275.308 73.3562 275.546 73.0653 275.853 72.8604C276.159 72.6563 276.52 72.5471 276.889 72.5471C277.383 72.5471 277.857 72.7431 278.207 73.0922C278.557 73.4412 278.753 73.9147 278.753 74.4087Z" fill="#B2B6BB"/>
<path d="M285.142 74.4087C285.142 74.7766 285.033 75.1364 284.828 75.4425C284.623 75.7495 284.332 75.9875 283.991 76.1289C283.651 76.2695 283.276 76.3062 282.914 76.2346C282.553 76.163 282.22 75.9858 281.96 75.7253C281.699 75.4649 281.521 75.1328 281.45 74.7721C281.378 74.4105 281.415 74.0364 281.555 73.6963C281.697 73.3562 281.935 73.0653 282.242 72.8604C282.548 72.6563 282.909 72.5471 283.278 72.5471C283.523 72.5471 283.766 72.5955 283.991 72.6886C284.217 72.7825 284.423 72.9195 284.596 73.0922C284.769 73.2649 284.906 73.4708 285.001 73.6963C285.094 73.9219 285.142 74.1644 285.142 74.4087Z" fill="#B2B6BB"/>
<path d="M291.445 74.4087C291.446 74.7792 291.337 75.1426 291.132 75.4514C290.927 75.7602 290.634 76.0009 290.292 76.1441C289.95 76.2864 289.572 76.3249 289.208 76.2524C288.844 76.1808 288.509 76.0027 288.247 75.7405C287.984 75.4782 287.806 75.1444 287.733 74.7802C287.662 74.4168 287.699 74.04 287.843 73.6972C287.985 73.3553 288.226 73.0635 288.536 72.8586C288.846 72.6536 289.209 72.5454 289.58 72.5471C290.074 72.5471 290.548 72.7431 290.898 73.0922C291.247 73.4412 291.445 73.9147 291.445 74.4087Z" fill="#B2B6BB"/>
<path d="M267.228 66.13V171.373H525.187V66.13H267.228ZM524.156 67.1592V80.8349H268.259V67.1592H524.156ZM268.259 170.344V81.8641H524.156V170.344H268.259Z" fill="#B2B6BB"/>
<path d="M349.341 94.5552H287.285V156.525H349.341V94.5552Z" fill="#B2B6BB"/>
<path d="M504.606 116.697H361.959C361.891 116.698 361.824 116.686 361.761 116.661C361.697 116.636 361.64 116.598 361.591 116.551C361.543 116.503 361.504 116.447 361.478 116.384C361.452 116.322 361.439 116.254 361.439 116.187C361.439 116.049 361.494 115.917 361.591 115.82C361.689 115.723 361.821 115.668 361.959 115.668H504.606C504.742 115.67 504.872 115.726 504.968 115.823C505.063 115.92 505.117 116.05 505.117 116.187C505.117 116.254 505.103 116.321 505.078 116.382C505.052 116.444 505.015 116.501 504.967 116.548C504.92 116.595 504.863 116.633 504.801 116.658C504.74 116.684 504.673 116.697 504.606 116.697Z" fill="#B2B6BB"/>
<path d="M504.608 104.284H361.961C361.887 104.293 361.813 104.287 361.741 104.266C361.67 104.244 361.605 104.208 361.549 104.159C361.494 104.11 361.449 104.05 361.418 103.983C361.388 103.916 361.373 103.843 361.373 103.769C361.373 103.695 361.388 103.622 361.418 103.554C361.449 103.487 361.494 103.427 361.549 103.378C361.605 103.33 361.67 103.293 361.741 103.272C361.813 103.251 361.887 103.245 361.961 103.255H504.608C504.732 103.271 504.847 103.332 504.93 103.426C505.014 103.521 505.06 103.643 505.06 103.769C505.06 103.895 505.014 104.016 504.93 104.111C504.847 104.206 504.732 104.267 504.608 104.284Z" fill="#B2B6BB"/>
<path d="M504.608 129.12H361.961C361.887 129.129 361.813 129.124 361.741 129.102C361.67 129.081 361.605 129.044 361.549 128.996C361.494 128.946 361.449 128.886 361.418 128.819C361.388 128.752 361.373 128.679 361.373 128.605C361.373 128.531 361.388 128.458 361.418 128.391C361.449 128.324 361.494 128.264 361.549 128.214C361.605 128.166 361.67 128.129 361.741 128.109C361.813 128.087 361.887 128.081 361.961 128.091H504.608C504.732 128.107 504.847 128.169 504.93 128.263C505.014 128.358 505.06 128.479 505.06 128.605C505.06 128.731 505.014 128.852 504.93 128.947C504.847 129.042 504.732 129.103 504.608 129.12Z" fill="#B2B6BB"/>
<path d="M450.276 141.534H361.762C361.582 141.534 361.439 141.31 361.439 141.024C361.439 140.737 361.582 140.505 361.762 140.505H450.276C450.455 140.505 450.598 140.737 450.598 141.024C450.598 141.31 450.446 141.534 450.276 141.534Z" fill="#B2B6BB"/>
</g>
<rect x="22.5" y="0.5" width="435" height="625.75" rx="199.5" stroke="black" stroke-opacity="0.25"/>
<defs>
<clipPath id="clip0_5_17">
<rect x="40" y="25" width="400" height="575" rx="200" fill="white"/>
</clipPath>
</defs>
</svg>
