<svg width="50" height="50" viewBox="0 0 50 50" fill="none" xmlns="http://www.w3.org/2000/svg">
<path d="M25 33.3333C24.5132 33.3343 24.0415 33.1647 23.6667 32.8542L11.1667 22.4375C10.7412 22.0839 10.4737 21.5757 10.4229 21.0248C10.3721 20.4739 10.5422 19.9254 10.8958 19.5C11.2495 19.0745 11.7576 18.807 12.3085 18.7562C12.8594 18.7054 13.4079 18.8755 13.8333 19.2292L25 28.5625L36.1667 19.5625C36.3798 19.3894 36.625 19.2602 36.8882 19.1822C37.1514 19.1042 37.4274 19.079 37.7004 19.1081C37.9734 19.1371 38.2379 19.2198 38.4788 19.3514C38.7197 19.483 38.9322 19.661 39.1042 19.875C39.295 20.0892 39.4395 20.3405 39.5286 20.6132C39.6178 20.8858 39.6496 21.1739 39.6223 21.4595C39.5949 21.745 39.5088 22.0218 39.3695 22.2726C39.2301 22.5233 39.0405 22.7426 38.8125 22.9167L26.3125 32.9792C25.9269 33.2406 25.4648 33.3653 25 33.3333Z" fill="#4ECB71"/>
</svg>
