<svg width="25" height="26" viewBox="0 0 25 26" fill="none" xmlns="http://www.w3.org/2000/svg">
<path fill-rule="evenodd" clip-rule="evenodd" d="M1.04167 3.45627C1.04167 2.94849 1.24339 2.46151 1.60244 2.10246C1.96149 1.7434 2.44848 1.54169 2.95626 1.54169H22.0417C22.2933 1.54128 22.5426 1.59051 22.7752 1.68655C23.0077 1.7826 23.2191 1.92357 23.3971 2.10141C23.5752 2.27925 23.7164 2.49046 23.8127 2.72295C23.909 2.95544 23.9585 3.20463 23.9583 3.45627V22.5417C23.9586 22.7934 23.9093 23.0427 23.8131 23.2753C23.7169 23.5078 23.5759 23.7192 23.3979 23.8972C23.22 24.0752 23.0087 24.2164 22.7762 24.3127C22.5436 24.409 22.2944 24.4585 22.0427 24.4584H2.95626C2.70474 24.4584 2.45569 24.4088 2.22334 24.3125C1.99098 24.2162 1.77987 24.0751 1.60207 23.8972C1.42427 23.7193 1.28327 23.5081 1.18711 23.2757C1.09096 23.0433 1.04154 22.7942 1.04167 22.5427V3.45627ZM10.1125 10.2792H13.2156V11.8375C13.6635 10.9417 14.8094 10.1354 16.5313 10.1354C19.8323 10.1354 20.6146 11.9198 20.6146 15.1938V21.2584H17.274V15.9396C17.274 14.075 16.826 13.0229 15.6885 13.0229C14.1104 13.0229 13.4542 14.1573 13.4542 15.9396V21.2584H10.1125V10.2792ZM4.38334 21.1156H7.72501V10.1354H4.38334V21.1146V21.1156ZM8.20313 6.55419C8.20943 6.84031 8.15852 7.1248 8.05338 7.39098C7.94824 7.65715 7.791 7.89964 7.59087 8.10422C7.39075 8.3088 7.15177 8.47135 6.88798 8.58232C6.62418 8.69329 6.34088 8.75046 6.05469 8.75046C5.76851 8.75046 5.4852 8.69329 5.22141 8.58232C4.95761 8.47135 4.71864 8.3088 4.51851 8.10422C4.31839 7.89964 4.16114 7.65715 4.05601 7.39098C3.95087 7.1248 3.89995 6.84031 3.90626 6.55419C3.91862 5.99258 4.15041 5.45814 4.55197 5.06532C4.95353 4.6725 5.49295 4.45254 6.05469 4.45254C6.61644 4.45254 7.15585 4.6725 7.55742 5.06532C7.95898 5.45814 8.19076 5.99258 8.20313 6.55419Z" fill="#25F3C2"/>
</svg>
