<svg width="25" height="26" viewBox="0 0 25 26" fill="none" xmlns="http://www.w3.org/2000/svg">
<path d="M2.67857 9.53929L12.1911 14.4866C12.2865 14.5362 12.3925 14.5621 12.5 14.5621C12.6075 14.5621 12.7135 14.5362 12.8089 14.4866L22.3214 9.54019V18.1339C22.3215 18.8751 22.0379 19.5883 21.5289 20.127C21.0198 20.6658 20.3239 20.9893 19.5839 21.0313L19.4196 21.0357H5.58036C4.83916 21.0358 4.12605 20.7522 3.5873 20.2432C3.04854 19.7341 2.725 19.0382 2.68304 18.2982L2.67857 18.1339V9.53929ZM5.58036 4.96429H19.4196C20.1608 4.96425 20.874 5.24782 21.4127 5.75686C21.9515 6.26589 22.275 6.96179 22.317 7.70179L22.3214 7.86608V8.03037L12.5 13.1375L2.67857 8.03037V7.86608C2.67853 7.12489 2.9621 6.41177 3.47114 5.87302C3.98017 5.33427 4.67607 5.01072 5.41607 4.96876L5.58036 4.96429Z" fill="#25F3C2"/>
</svg>
