<svg width="126" height="177" viewBox="0 0 126 177" fill="none" xmlns="http://www.w3.org/2000/svg">
<path fill-rule="evenodd" clip-rule="evenodd" d="M154.848 104.918C148.282 120.61 133.967 130.859 118.486 137.859C103.407 144.676 85.69 150.441 71.0231 142.818C57.2012 135.633 57.3113 116.788 50.7382 102.645C44.2758 88.74 29.3488 76.7197 33.4253 61.9196C37.5815 46.8301 54.7002 39.9017 69.4461 34.7237C82.4145 30.1698 95.6666 32.403 109.078 35.3544C125.408 38.948 144.669 39.3218 153.867 53.3019C163.688 68.2279 161.755 88.4101 154.848 104.918Z" fill="black" fill-opacity="0.19"/>
<path fill-rule="evenodd" clip-rule="evenodd" d="M163.583 107.55C156.063 125.52 139.671 137.257 121.943 145.272C104.675 153.079 84.3861 159.681 67.5903 150.951C51.7621 142.724 51.8883 121.143 44.3611 104.947C36.9607 89.0239 19.867 75.2589 24.5352 58.3106C29.2947 41.0309 48.8981 33.0967 65.7844 27.1671C80.6352 21.9523 95.8109 24.5096 111.169 27.8894C129.869 32.0047 151.925 32.4328 162.459 48.442C173.705 65.5345 171.492 88.6461 163.583 107.55Z" stroke="black" stroke-opacity="0.19"/>
</svg>
