<svg width="25" height="26" viewBox="0 0 25 26" fill="none" xmlns="http://www.w3.org/2000/svg">
<g clip-path="url(#clip0_11_43)">
<path d="M20.8333 17.834C20.8333 17.7146 20.8225 17.6278 20.8008 17.5736C20.7791 17.5193 20.6814 17.4298 20.5078 17.305C20.3342 17.1802 20.1145 17.0446 19.8486 16.8981C19.5828 16.7516 19.3251 16.6079 19.0755 16.4668C18.826 16.3257 18.5791 16.1901 18.335 16.0599C18.0908 15.9297 17.9362 15.8483 17.8711 15.8158C17.8168 15.7832 17.7138 15.7127 17.5618 15.6042C17.4099 15.4957 17.2743 15.4143 17.1549 15.36C17.0356 15.3058 16.9217 15.2786 16.8132 15.2786C16.6504 15.2786 16.4524 15.3899 16.2191 15.6123C15.9858 15.8347 15.7715 16.0789 15.5762 16.3447C15.3809 16.6106 15.172 16.8547 14.9495 17.0771C14.7271 17.2996 14.5454 17.4108 14.4043 17.4108C14.3283 17.4108 14.2388 17.3918 14.1357 17.3538C14.0327 17.3159 13.9486 17.2806 13.8835 17.248C13.8184 17.2155 13.7261 17.164 13.6068 17.0934C13.4874 17.0229 13.4115 16.9768 13.3789 16.9551C12.3047 16.3583 11.3824 15.672 10.612 14.8962C9.84158 14.1203 9.15256 13.1953 8.54492 12.1211C8.52322 12.0885 8.47711 12.0126 8.40658 11.8932C8.33605 11.7739 8.2845 11.6816 8.25195 11.6165C8.2194 11.5514 8.18414 11.4673 8.14616 11.3643C8.10818 11.2612 8.08919 11.1717 8.08919 11.0957C8.08919 10.9546 8.20041 10.7729 8.42285 10.5505C8.64529 10.328 8.88943 10.1191 9.15527 9.92383C9.42111 9.72852 9.66526 9.51421 9.8877 9.28092C10.1101 9.04763 10.2214 8.84961 10.2214 8.68685C10.2214 8.57834 10.1942 8.46441 10.14 8.34505C10.0857 8.22569 10.0043 8.09006 9.89583 7.93815C9.78733 7.78624 9.7168 7.68316 9.68424 7.62891C9.65169 7.5638 9.57031 7.40918 9.4401 7.16504C9.3099 6.9209 9.17426 6.67405 9.0332 6.42448C8.89214 6.17491 8.74837 5.91721 8.60189 5.65137C8.4554 5.38552 8.31977 5.1658 8.19499 4.99219C8.0702 4.81858 7.98069 4.72092 7.92643 4.69922C7.87218 4.67752 7.78537 4.66667 7.66602 4.66667C7.14518 4.66667 6.59722 4.78602 6.02214 5.02474C5.523 5.2526 5.08898 5.7653 4.72005 6.56283C4.35113 7.36035 4.16667 8.06836 4.16667 8.68685C4.16667 8.86046 4.18023 9.04492 4.20736 9.24023C4.23448 9.43555 4.26161 9.60102 4.28874 9.73665C4.31586 9.87229 4.36469 10.0513 4.43522 10.2738C4.50575 10.4962 4.56 10.6562 4.59798 10.7539C4.63596 10.8516 4.70378 11.0306 4.80143 11.291C4.89909 11.5514 4.95877 11.7142 4.98047 11.7793C5.63151 13.5588 6.8061 15.2976 8.50423 16.9958C10.2024 18.6939 11.9412 19.8685 13.7207 20.5195C13.7858 20.5412 13.9486 20.6009 14.209 20.6986C14.4694 20.7962 14.6484 20.864 14.7461 20.902C14.8437 20.94 15.0038 20.9942 15.2262 21.0648C15.4487 21.1353 15.6277 21.1841 15.7633 21.2113C15.899 21.2384 16.0645 21.2655 16.2598 21.2926C16.4551 21.3198 16.6395 21.3333 16.8132 21.3333C17.4316 21.3333 18.1396 21.1489 18.9372 20.7799C19.7347 20.411 20.2474 19.977 20.4753 19.4779C20.714 18.9028 20.8333 18.3548 20.8333 17.834ZM25 5.1875V20.8125C25 22.1037 24.5416 23.2078 23.6247 24.1247C22.7078 25.0416 21.6037 25.5 20.3125 25.5H4.6875C3.39627 25.5 2.29221 25.0416 1.37533 24.1247C0.458442 23.2078 0 22.1037 0 20.8125V5.1875C0 3.89627 0.458442 2.79221 1.37533 1.87533C2.29221 0.958442 3.39627 0.5 4.6875 0.5H20.3125C21.6037 0.5 22.7078 0.958442 23.6247 1.87533C24.5416 2.79221 25 3.89627 25 5.1875Z" fill="#25F3C2"/>
</g>
<defs>
<clipPath id="clip0_11_43">
<rect width="25" height="25" fill="white" transform="translate(0 0.5)"/>
</clipPath>
</defs>
</svg>
