<svg width="164" height="164" viewBox="0 0 164 164" fill="none" xmlns="http://www.w3.org/2000/svg">
<path fill-rule="evenodd" clip-rule="evenodd" d="M145.507 78.5368C151.982 95.2536 139.451 114.282 126.477 126.617C115.336 137.209 98.4151 133.813 83.4999 137.49C66.1509 141.767 47.9844 159.883 33.3696 149.569C18.7657 139.263 29.7771 116.015 27.8604 98.2241C26.1562 82.4059 16.2333 67.002 22.9204 52.5781C30.5188 36.1886 45.9019 19.4706 63.915 20.4552C81.4599 21.4143 85.0867 46.5596 99.4155 56.7596C113.812 67.0078 139.117 62.0419 145.507 78.5368Z" fill="black" fill-opacity="0.19"/>
<path fill-rule="evenodd" clip-rule="evenodd" d="M152.264 78.1071C159.435 96.6179 145.558 117.688 131.192 131.347C118.856 143.076 100.119 139.316 83.6028 143.387C64.3918 148.123 44.2756 168.183 28.0923 156.763C11.921 145.35 24.1143 119.608 21.9918 99.9072C20.1048 82.3914 9.11684 65.3343 16.5216 49.3624C24.9355 31.2138 41.9696 12.7016 61.9159 13.792C81.3438 14.854 85.3598 42.6979 101.226 53.9927C117.168 65.3406 145.189 59.8418 152.264 78.1071Z" stroke="black" stroke-opacity="0.19"/>
</svg>
