<svg width="20" height="20" viewBox="0 0 20 20" fill="none" xmlns="http://www.w3.org/2000/svg">
<path d="M20 3.5905C19.2563 3.91675 18.4638 4.133 17.6375 4.238C18.4875 3.7305 19.1362 2.933 19.4412 1.97175C18.6488 2.44425 17.7737 2.778 16.8412 2.96425C16.0887 2.163 15.0162 1.66675 13.8462 1.66675C11.5762 1.66675 9.74875 3.50925 9.74875 5.768C9.74875 6.093 9.77625 6.4055 9.84375 6.703C6.435 6.53675 3.41875 4.903 1.3925 2.41425C1.03875 3.028 0.83125 3.7305 0.83125 4.48675C0.83125 5.90675 1.5625 7.1655 2.6525 7.89425C1.99375 7.88175 1.3475 7.6905 0.8 7.38925C0.8 7.40175 0.8 7.418 0.8 7.43425C0.8 9.42675 2.22125 11.0817 4.085 11.463C3.75125 11.5542 3.3875 11.598 3.01 11.598C2.7475 11.598 2.4825 11.583 2.23375 11.528C2.765 13.1517 4.2725 14.3455 6.065 14.3842C4.67 15.4755 2.89875 16.133 0.98125 16.133C0.645 16.133 0.3225 16.118 0 16.0767C1.81625 17.248 3.96875 17.9167 6.29 17.9167C13.835 17.9167 17.96 11.6667 17.96 6.24925C17.96 6.068 17.9538 5.893 17.945 5.71925C18.7587 5.14175 19.4425 4.4205 20 3.5905Z" fill="#B0B8BC"/>
</svg>
