<svg width="20" height="20" viewBox="0 0 20 20" fill="none" xmlns="http://www.w3.org/2000/svg">
<path fill-rule="evenodd" clip-rule="evenodd" d="M4.375 2.1875C4.375 3.39562 3.39562 4.375 2.1875 4.375C0.979377 4.375 0 3.39562 0 2.1875C0 0.979377 0.979377 0 2.1875 0C3.39562 0 4.375 0.979377 4.375 2.1875ZM0 6.25H4.4725V20H0V6.25ZM16.655 6.41125C16.6392 6.40625 16.6236 6.40111 16.6081 6.39597C16.577 6.3857 16.5458 6.37542 16.5125 6.36625C16.4525 6.3525 16.3925 6.34125 16.3312 6.33125C16.0938 6.28375 15.8337 6.25 15.5287 6.25C12.9212 6.25 11.2675 8.14625 10.7225 8.87875V6.25H6.25V20H10.7225V12.5C10.7225 12.5 14.1025 7.7925 15.5287 11.25V20H20V10.7212C20 8.64375 18.5763 6.9125 16.655 6.41125Z" fill="#B0B8BC"/>
</svg>
